<?xml version="1.0" encoding="utf-8"?>
<!-- Generator: Adobe Illustrator 19.0.1, SVG Export Plug-In . SVG Version: 6.00 Build 0)  -->
<svg version="1.1" id="Слой_1" xmlns="http://www.w3.org/2000/svg" xmlns:xlink="http://www.w3.org/1999/xlink" x="0px" y="0px"
	 viewBox="0 0 1000 1000" style="enable-background:new 0 0 1000 1000;" xml:space="preserve">
<style type="text/css">
	.st0{fill:#FF0000;}
	.st1{display:none;opacity:0.5;fill:#FF0000;}
</style>
<ellipse class="st0" cx="366" cy="386" rx="133" ry="114"/>
<ellipse class="st0" cx="632" cy="386" rx="133" ry="115"/>
<polygon class="st1" points="206,307 216.7,400 256,476 461,655 533,481 472,307 "/>
<path class="st0" d="M245,338c0,0-25.5,56.5-18,86s3,23,16,62s17,38.5,33,60s74.5,77,107,96s90.5,57.5,117,72l66-166l-61-174
	L245,338z"/>
<path class="st0" d="M225,413c0,0-3.5,40,5,61s24.5,46,34,56s302,18,302,18l-61-174L225,413z"/>
<path class="st0" d="M775.3,413c0,0,3.5,40-5,61s-24.5,46-34,56s-302,18-302,18l61-174L775.3,413z"/>
<path class="st0" d="M752.6,338.4L495.3,374l-61,174l66,166c26.5-14.5,84.5-53,117-72s91-74.5,107-96s20-21,33-60s8.5-32.5,16-62
	c4.1-16.3-1.8-40.7-7.9-59.4L752.6,338.4z"/>
<g>
</g>
<g>
</g>
<g>
</g>
<g>
</g>
<g>
</g>
<g>
</g>
<g>
</g>
<g>
</g>
<g>
</g>
<g>
</g>
<g>
</g>
<g>
</g>
<g>
</g>
<g>
</g>
<g>
</g>
</svg>
