<?xml version="1.0" encoding="utf-8"?>
<!-- Generator: Adobe Illustrator 19.0.1, SVG Export Plug-In . SVG Version: 6.00 Build 0)  -->
<svg version="1.1" xmlns="http://www.w3.org/2000/svg" xmlns:xlink="http://www.w3.org/1999/xlink" x="0px" y="0px"
	 viewBox="0 0 1000 1000" style="enable-background:new 0 0 1000 1000;" xml:space="preserve">
<style type="text/css">
	.st0{display:none;}
	.st1{display:inline;}
	.st2{fill:#C9C9C9;}
	.st3{display:none;opacity:0.5;fill:#C9C9C9;}
</style>
<g id="Слой_2" class="st0">
	<ellipse class="st1" cx="347.3" cy="361.8" rx="150.7" ry="135.3"/>
	<ellipse class="st1" cx="648.7" cy="361.8" rx="150.7" ry="136.4"/>
	<path class="st1" d="M210.2,304.9c0,0-28.9,67-20.4,102c8.5,35,3.4,27.3,18.1,73.6c14.7,46.3,19.3,45.7,37.4,71.2
		s84.4,91.4,121.2,113.9c36.8,22.5,102.5,68.2,132.6,85.4l74.8-197l-69.1-206.5L210.2,304.9z"/>
	<path class="st1" d="M187.6,393.9c0,0-4,47.5,5.7,72.4s27.8,54.6,38.5,66.4c10.8,11.9,342.2,21.4,342.2,21.4l-69.1-206.5
		L187.6,393.9z"/>
	<path class="st1" d="M811,393.9c0,0,4,47.5-5.7,72.4c-9.6,24.9-27.8,54.6-38.5,66.4C756.1,544.5,424.7,554,424.7,554l69.1-206.5
		L811,393.9z"/>
	<path class="st1" d="M785.3,305.3l-291.5,42.3L424.7,554l74.8,197c30-17.2,95.7-62.9,132.6-85.4c36.8-22.5,103.1-88.4,121.2-113.9
		s22.7-24.9,37.4-71.2s9.6-38.6,18.1-73.6c4.7-19.3-2-48.3-8.9-70.5L785.3,305.3z"/>
</g>
<g id="Слой_1">
	<ellipse class="st2" cx="366" cy="386" rx="133" ry="114"/>
	<ellipse class="st2" cx="632" cy="386" rx="133" ry="115"/>
	<polygon class="st3" points="206,307 216.7,400 256,476 461,655 533,481 472,307 	"/>
	<path class="st2" d="M245,338c0,0-25.5,56.5-18,86s3,23,16,62s17,38.5,33,60s74.5,77,107,96s90.5,57.5,117,72l66-166l-61-174
		L245,338z"/>
	<path class="st2" d="M225,413c0,0-3.5,40,5,61s24.5,46,34,56s302,18,302,18l-61-174L225,413z"/>
	<path class="st2" d="M775.3,413c0,0,3.5,40-5,61s-24.5,46-34,56s-302,18-302,18l61-174L775.3,413z"/>
	<path class="st2" d="M752.6,338.4L495.3,374l-61,174l66,166c26.5-14.5,84.5-53,117-72s91-74.5,107-96s20-21,33-60s8.5-32.5,16-62
		c4.1-16.3-1.8-40.7-7.9-59.4L752.6,338.4z"/>
</g>
<g id="Слой_3" class="st0">
</g>
</svg>
