<?xml version="1.0" encoding="utf-8"?>
<!-- Generator: Adobe Illustrator 19.0.1, SVG Export Plug-In . SVG Version: 6.00 Build 0)  -->
<svg version="1.1" xmlns="http://www.w3.org/2000/svg" xmlns:xlink="http://www.w3.org/1999/xlink" x="0px" y="0px"
	 viewBox="0 0 1000 1000" style="enable-background:new 0 0 1000 1000;" xml:space="preserve">
<style type="text/css">
	.st0{fill:#50D3BD;}
	.st1{fill:#FFFFFF;}
</style>
<g id="Слой_2">
	<path class="st0" d="M500,1000L500,1000C223.9,1000,0,776.1,0,500v0C0,223.9,223.9,0,500,0h0c276.1,0,500,223.9,500,500v0
		C1000,776.1,776.1,1000,500,1000z"/>
</g>
<g id="Слой_1">
	<g>
		<path class="st1" d="M243.3,516.1l95.3-142.2c-21.7,0.8-44.5,4-68.4,9.4c-24,5.4-44.5,11.2-61.6,17.3c-17.1,6.1-32.3,12-45.8,17.5
			c-13.4,5.5-23.1,9.4-28.9,11.7c-1.5,0-2.9-0.5-4.4-1.6c-1.5-1-2.2-2.3-2.2-3.8c0-1.7,4.8-11.9,14.5-30.6
			c9.7-18.8,21.1-38.9,34.2-60.3c72.9-26,137.3-39.1,193.1-39.1c64.6,0,109.4,13.8,134.4,41.3c9,9.6,15.9,21.4,20.8,35.5
			c4.9,14.1,7.3,28,7.3,41.7c0,31.3-6.5,59.6-19.5,85.2c-13,25.5-31.6,47.7-55.8,66.4c-24.2,18.8-52.6,33.1-85.3,43
			c-32.7,9.9-68.5,14.8-107.5,14.8c-6.9,0-20.9-1.3-42.2-3.8l-28.1,51.3c2.9,4.4,4.4,7.9,4.4,10.6c0,6.5-1.5,11.9-4.4,16.3
			c-4.2,6.3-9.7,14.5-16.6,24.7c-6.9,10.2-11.5,17-13.9,20.3c-2.4,3.3-5.1,6.3-8.1,8.8c-3,2.5-6,3.8-8.9,3.8c-6,0-9.9-1.8-11.6-5.5
			c-1.7-3.6-2.5-8.7-2.5-15.2c0-9.2,4.5-23.7,13.6-43.6c9.1-19.9,22.8-46.3,41.1-79.2c-9.8-3.8-17.4-8.6-22.8-14.7
			c-5.4-6-8.1-12-8.1-17.8c0-12.9,7.4-24.9,22.2-35.9C192.5,531.3,214.4,522.6,243.3,516.1z M275.8,524.6l-17.8,30
			c7.9,0.4,14.9,0.8,21.1,1.3c6.1,0.4,11.3,0.6,15.5,0.6c36.5,0,68.1-4.9,94.8-14.7c26.8-9.8,48-21.9,63.8-36.4
			c15.7-14.5,27.1-29,34.2-43.6c7.1-14.6,10.6-26.8,10.6-36.6c0-13.5-5.4-24.2-16.3-31.9c-10.8-7.7-26.4-13-46.7-15.8
			s-46.5-4.2-78.6-4.2c0.4,2.3,0.6,5.1,0.6,8.4c0,10.8-5.7,25.1-17.2,42.8l-54.4,85.3l40.9-4.7c3.3,0,5,1.6,5,4.7
			c0,2.7-2.7,4.6-8.1,5.6L275.8,524.6z"/>
		<path class="st1" d="M656.6,490.5l-15.9,18.7c18.5,1.7,35.1,3.9,49.7,6.7c14.6,2.8,28.1,5.9,40.5,9.4c12.4,3.4,23.3,7,32.7,10.8
			c32.9,13.8,49.4,32.9,49.4,57.5c0,15-6.9,29.7-20.6,44.1s-31.6,27.2-53.6,38.4c-22,11.3-44.6,20.1-67.8,26.4
			c-23.2,6.4-44.3,9.5-63.3,9.5c-31.7,0-56.4-5.9-74.1-17.7c-17.7-11.8-26.6-27.9-26.6-48.3c0-14.2,5.4-30.8,16.3-50
			c10.8-19.2,27.6-43,50.3-71.6c-17.1-0.8-29.2-3.4-36.3-7.7c-7.1-4.3-10.6-10.3-10.6-18c0-4.8,1.4-8.4,4.1-10.9
			c2.7-2.5,6.4-4.3,10.9-5.5c4.6-1.1,13.4-2.5,26.4-4.2c13-1.7,29.7-3.8,50.2-6.3c22.7-27.9,43.1-48.9,61.1-63
			c18-14.1,37.3-22.1,58-24.2c1.7-0.2,3.5-0.3,5.5-0.3c2,0,3,0.5,3,1.6c0,1.3-2.3,4.6-7,10c-4.7,5.4-12.3,14.1-22.8,25.9
			c-10.5,11.9-23,25.9-37.3,42.2c39.2-5.2,71.2-11.2,96.1-18c24.9-6.8,43.7-14.8,56.4-24.2c12.7-9.4,19.1-19.8,19.1-31.3
			c0-14-6.8-24.1-20.3-30.3c-13.5-6.3-34.3-9.4-62.2-9.4c-15.4,0-33.1,1.6-53,4.7c-19.9,3.1-37.9,6.7-54.1,10.6
			c-16.1,4-30.5,8.2-43.1,12.7c-12.6,4.5-18.9,7.8-18.9,9.8c0,0.6,0.6,1.3,1.9,1.9c10.2,3.8,15.3,6.9,15.3,9.4
			c0,3.3-15.6,9.7-46.9,19.2c-31.3,9.5-52.3,14.2-63.1,14.2c-7.7,0-11.6-3.9-11.6-11.6c0-9.2,8.4-25.7,25.2-49.5
			c16.8-23.9,32-39.1,45.8-45.8c4.8-2.3,15.9-5.9,33.4-10.9s36.7-9.8,57.7-14.4c20.9-4.6,42.2-8.4,63.9-11.6
			c21.7-3.1,40.8-4.7,57.5-4.7c39.4,0,69,7,88.8,21.1c19.8,14.1,29.7,31.7,29.7,53c0,14.4-4.5,28.2-13.6,41.6
			c-9.1,13.3-23.2,25.9-42.3,37.8c-19.2,11.9-44.1,22.3-74.8,31.3C734.5,478.8,698.3,485.7,656.6,490.5z M623.5,530.8
			c-10.8,12.9-20.5,24.3-28.9,34.2c-8.4,9.9-14.5,17.9-18.1,24.1c-3.6,6.1-5.5,12.3-5.5,18.6c0,10,5.2,18.9,15.5,26.7
			s25.2,11.7,44.5,11.7c17.9,0,37-3.2,57.3-9.5c20.3-6.4,37.4-14.6,51.3-24.8c13.9-10.2,20.8-20.5,20.8-30.9c0-9-5.1-16.4-15.3-22.2
			c-10.2-5.8-25.7-11-46.6-15.5C677.7,538.7,652.7,534.6,623.5,530.8z"/>
	</g>
	<g>
	</g>
	<g>
	</g>
	<g>
	</g>
	<g>
	</g>
	<g>
	</g>
	<g>
	</g>
	<g>
	</g>
	<g>
	</g>
	<g>
	</g>
	<g>
	</g>
	<g>
	</g>
</g>
</svg>
